<?xml version="1.0" standalone="no"?>
<!DOCTYPE svg PUBLIC "-//W3C//DTD SVG 1.1//EN" "http://www.w3.org/Graphics/SVG/1.1/DTD/svg11.dtd" >
<svg xmlns="http://www.w3.org/2000/svg">
<metadata></metadata>
<defs>
<font id="adoniscbold_italic" horiz-adv-x="1212" >
<font-face units-per-em="2048" ascent="1403" descent="-645" />
<missing-glyph horiz-adv-x="477" />
<glyph horiz-adv-x="0" />
<glyph horiz-adv-x="682" />
<glyph unicode=" "  horiz-adv-x="477" />
<glyph unicode="&#x09;" horiz-adv-x="477" />
<glyph unicode="&#xa0;" horiz-adv-x="477" />
<glyph unicode="!" horiz-adv-x="512" d="M117 92q0 73 44.5 120.5t112.5 47.5q53 0 80 -32.5t27 -88.5q0 -70 -45 -118t-113 -48q-48 0 -77 32t-29 87zM264 430l103 840q12 97 26 155t36.5 91t50.5 44t73 11q27 0 49 -6.5t41 -29.5t19 -60q0 -60 -46 -205l-270 -840h-82z" />
<glyph unicode="&#x22;" horiz-adv-x="765" d="M188 1047l7 280q2 111 33.5 168t119.5 57q57 0 76.5 -20t19.5 -64q0 -48 -38 -141l-117 -280h-101zM537 1047l6 280q2 111 33.5 168t119.5 57q57 0 77 -20t20 -64q0 -45 -39 -141l-117 -280h-100z" />
<glyph unicode="#" horiz-adv-x="1353" d="M197 389l16 125h233l86 467h-221l15 127h227l57 348h140l-62 -348h277l59 348h137l-57 -348h225l-16 -127h-228l-86 -467h218l-21 -125h-221l-70 -391h-137l70 391h-279l-72 -391h-137l72 391h-225zM584 514h278l86 467h-278z" />
<glyph unicode="$" d="M127 254q0 96 44.5 152.5t129.5 56.5q38 0 62 -25t24 -76q0 -22 -14.5 -68t-14.5 -79q0 -63 42 -101t108 -38l131 626q-13 8 -48.5 30.5t-54 34.5t-52 37t-52.5 43.5t-43.5 48t-37.5 57.5t-22.5 64t-9.5 75q0 86 34 156t86 113.5t119 73t128.5 41t118.5 11.5l37 176h159 l-36 -176q86 -8 145.5 -28t114.5 -66q34 -29 63 -85t29 -114q0 -84 -41 -145.5t-123 -61.5q-33 0 -59.5 20t-26.5 66q0 21 10 65.5t10 82.5q0 63 -41 110t-108 47l-102 -497l1 -1h1l2 -1q154 -90 212 -140q119 -103 134 -247q2 -22 2 -46q0 -218 -199 -366 q-143 -106 -350 -121l-31 -135h-159l30 137q-86 8 -145.5 28t-114.5 66q-34 29 -63 85t-29 114zM549 1161q0 -31 4 -56t16.5 -46t20.5 -33t31 -30t31.5 -23.5t37.5 -24.5l92 436q-41 0 -80 -12t-74.5 -37t-57 -70t-21.5 -104zM666 76q111 0 193.5 87t82.5 214q0 50 -14 89.5 t-40 67t-47 43.5t-51 34q-8 5 -12 7z" />
<glyph unicode="%" horiz-adv-x="1361" d="M39 1116q0 107 49 199t146.5 150.5t224.5 58.5q132 0 198 -76t66 -199q0 -74 -28.5 -148.5t-79.5 -137.5t-133 -102.5t-179 -39.5q-117 0 -190.5 77t-73.5 218zM78 -4l1161 1497l76 -57l-1163 -1499zM225 1090q0 -25 4.5 -50t16.5 -53.5t38.5 -46.5t63.5 -18 q93 0 141 86.5t48 248.5q0 166 -125 166q-81 0 -134 -76t-53 -257zM684 219q0 107 49 199t146.5 150.5t224.5 58.5q132 0 198 -76t66 -199q0 -74 -28.5 -148.5t-79.5 -137.5t-133 -102.5t-179 -39.5q-117 0 -190.5 77t-73.5 218zM870 193q0 -25 4.5 -50t16.5 -53.5 t38.5 -46.5t63.5 -18q93 0 141 86.5t48 248.5q0 166 -125 166q-81 0 -134 -76t-53 -257z" />
<glyph unicode="&#x26;" horiz-adv-x="1579" d="M131 328q0 60 11.5 112.5t28 92.5t49 79t61 66t77 60t84 54t95.5 54q-52 84 -74.5 139.5t-22.5 122.5q0 119 68 214t180 146.5t244 51.5q63 0 116 -13t97 -40.5t69 -76t25 -112.5q0 -126 -107.5 -226t-314.5 -188l303 -458q66 100 66 137q0 24 -10.5 36.5t-26.5 12.5 q-21 0 -32 14.5t-11 34.5q0 33 32 55.5t74 22.5h158q52 0 73 -16.5t21 -55.5q0 -21 -17 -38t-50 -17q-17 0 -38 -21t-34 -47q-68 -133 -139 -223q122 -211 211 -211h8q18 0 27 -0.5t22 -4t19 -12t6 -22.5q0 -27 -18 -43t-46 -20.5t-61.5 -6.5t-64.5 1h-17q-86 1 -146.5 41.5 t-126.5 123.5q-209 -188 -462 -188q-100 0 -179.5 30.5t-128 83t-73.5 117.5t-25 138zM373 457q0 -141 73 -231.5t197 -90.5q72 0 133.5 17.5t90.5 35t65 45.5l-336 527q-36 -17 -71.5 -43t-71.5 -63.5t-58 -89t-22 -107.5zM651 1200q0 -79 58 -170l53 -84q87 40 144 79 t86.5 80.5t40.5 81t11 91.5q0 131 -184 131q-88 0 -148.5 -64t-60.5 -145z" />
<glyph unicode="'" horiz-adv-x="434" d="M262 1047l6 280q2 111 34 168t120 57q57 0 76.5 -20t19.5 -64q0 -45 -39 -141l-117 -280h-100z" />
<glyph unicode="(" horiz-adv-x="772" d="M188 424q0 174 52.5 340t134 293t188 238.5t205.5 184.5t197 124q20 10 34 10q27 0 27 -27q0 -16 -27 -43q-3 -3 -34 -26t-69.5 -53t-91 -85.5t-102.5 -121.5t-99.5 -165t-87 -210.5t-60.5 -263t-23 -318.5q0 -356 154 -608q2 -2 7.5 -9.5t9 -13t6.5 -13t3 -13.5 q0 -27 -26 -27q-25 0 -41 16q-357 299 -357 791z" />
<glyph unicode=")" horiz-adv-x="772" d="M-115 -350q0 16 27 43q3 3 34 26t69.5 53t91 85.5t102.5 121.5t99.5 165t87 210.5t60.5 263t23 318.5q0 358 -153 608q-1 1 -9.5 12.5t-13 20t-4.5 16.5q0 27 27 27q25 0 41 -16q356 -298 356 -791q0 -174 -52.5 -340t-133.5 -293t-187.5 -238.5t-206 -184.5t-196.5 -124 q-20 -10 -35 -10q-27 0 -27 27z" />
<glyph unicode="*" horiz-adv-x="933" d="M256 922q0 22 13.5 39.5t47.5 37.5q21 12 77.5 28.5t102.5 26.5l46 11v10q-179 39 -226 66q-61 37 -61 78q0 26 20 59q31 55 74 55q32 0 66 -20q21 -13 63 -54.5t73 -76.5l32 -35l10 8q-57 172 -57 227q0 60 23.5 81.5t74.5 21.5q50 0 74 -22t24 -81q0 -24 -14.5 -81 t-28.5 -101l-14 -45l10 -8q121 137 168 166q34 20 66 20q42 0 73 -55q21 -35 21 -59q0 -41 -62 -78q-21 -12 -77 -28.5t-102 -26.5l-46 -11v-10q178 -39 225 -66q62 -37 62 -77q0 -25 -21 -60q-31 -55 -73 -55q-32 0 -66 20q-21 13 -63 54.5t-73 76.5l-32 35l-10 -8 q57 -172 57 -227q0 -59 -24 -81t-74 -22q-51 0 -74.5 21.5t-23.5 81.5q0 24 14.5 81t28.5 101l14 45l-10 8q-121 -137 -168 -166q-34 -20 -66 -20q-43 0 -74 55q-20 33 -20 60z" />
<glyph unicode="+" horiz-adv-x="1341" d="M172 520v178h444v445h177v-445h444v-178h-444v-432h-177v432h-444z" />
<glyph unicode="," horiz-adv-x="417" d="M-49 -338q0 33 39 49q60 27 108.5 71.5t48.5 100.5q0 31 -11 56.5t-23.5 40.5t-23.5 37.5t-11 48.5q0 165 166 165q118 0 118 -153q0 -101 -48 -189.5t-115 -150.5q-56 -50 -113.5 -85.5t-89.5 -35.5q-45 0 -45 45z" />
<glyph unicode="-" horiz-adv-x="884" d="M211 430v162h614v-162h-614z" />
<glyph unicode="." horiz-adv-x="495" d="M111 94q0 79 45 122.5t108 43.5q56 0 90.5 -32.5t34.5 -88.5q0 -71 -46 -116.5t-107 -45.5q-55 0 -90 28.5t-35 88.5z" />
<glyph unicode="/" horiz-adv-x="897" d="M-104 -385l1183 1946l119 -58l-1184 -1943z" />
<glyph unicode="0" d="M78 424q0 194 47 371t125 307.5t176 227.5t203.5 146.5t204.5 49.5q168 0 261 -117.5t93 -361.5q0 -158 -33 -307.5t-90 -268.5t-132 -219t-159 -166.5t-172 -103.5t-170 -37q-69 0 -131 28.5t-112.5 84.5t-80.5 150.5t-30 215.5zM350 465q0 -184 45.5 -275.5 t143.5 -91.5q106 0 193.5 127.5t135 335t47.5 445.5q0 188 -44.5 277t-143.5 89q-111 0 -198.5 -125t-133 -331t-45.5 -451z" />
<glyph unicode="1" d="M291 63q0 24 19 41t55 21q41 4 57 78l194 905q5 29 5 37q0 37 -50 37q-26 0 -83 -18.5t-74 -18.5q-29 0 -29 33q0 88 352 254q44 22 98.5 40.5t67.5 18.5q66 0 41 -109l-252 -1179q-6 -27 -6 -41q0 -36 37 -41q16 -2 32.5 -14t16.5 -35q0 -84 -154 -84h-229q-50 0 -74 16 t-24 59z" />
<glyph unicode="2" d="M86 47q0 85 78.5 185t226.5 237q48 45 122.5 106.5t122 101t104 99t89 113t54.5 128t22 159.5q0 121 -42.5 174t-106.5 53q-92 0 -151.5 -53t-59.5 -140q0 -24 6 -60t6 -60q0 -46 -39.5 -84.5t-101.5 -38.5q-50 0 -77.5 31.5t-27.5 91.5q0 86 42.5 166.5t115.5 140 t176.5 95.5t218.5 36q162 0 254 -74t92 -229q0 -73 -22 -140t-64 -125.5t-84.5 -103t-101.5 -94.5q-111 -94 -285 -228.5t-237 -197.5q-70 -70 -70 -100q0 -9 4.5 -14.5t14.5 -7t17 -2t23 0t21 0.5h258q138 0 223 82l10 10l10.5 10.5t9 8.5t10 8t9.5 5t11.5 4t11.5 1 q45 0 45 -39q0 -15 -15.5 -70t-37.5 -106q-9 -22 -16.5 -38.5t-16.5 -30t-14.5 -23.5t-16.5 -18t-16.5 -12.5t-20 -8t-21 -5t-26.5 -2.5t-29.5 -1h-35.5h-537q-8 0 -29 -0.5t-29 0t-24 2t-22.5 5t-15.5 10t-12 17t-3 25.5z" />
<glyph unicode="3" d="M90 258q0 88 41 132t115 44q42 0 67 -23t25 -67q0 -38 -3 -71.5t-3 -43.5q0 -29 5 -52t20 -51t51.5 -44t91.5 -16q100 0 171.5 57.5t105.5 153.5t34 219q0 111 -36.5 158.5t-143.5 50.5q-8 0 -48.5 -6.5t-70.5 -6.5q-44 0 -62 13t-18 47q0 32 16.5 51.5t41 25t52.5 8 t52 -0.5h72q65 9 114.5 42t75.5 72t42 88.5t20 84t4 65.5q0 221 -170 221q-165 0 -220 -207q-13 -55 -46 -92t-85 -37q-102 0 -102 107q0 63 42 125.5t113.5 111.5t174.5 80t217 31q358 0 358 -299q0 -79 -32 -153t-85 -129.5t-118 -95.5t-133 -60v-11q40 -10 70.5 -22 t69 -35.5t63 -54.5t42 -81t17.5 -112q0 -95 -46 -189t-125.5 -169.5t-198.5 -122.5t-253 -47q-55 0 -107.5 9.5t-103.5 33t-89 58t-61.5 89t-23.5 121.5z" />
<glyph unicode="4" d="M92 489q0 50 51 132q89 138 237 313t284 301q139 127 246 201.5t184 74.5q40 0 52.5 -12.5t12.5 -44.5q0 -26 -10 -76l-168 -782h70q21 0 31.5 -1.5t21 -12t10.5 -31.5q0 -34 -11 -59t-27 -38t-40.5 -20.5t-44 -9.5t-45.5 -2l-49 -221q-6 -27 -6 -41q0 -36 37 -41 q16 -2 32.5 -14t16.5 -35q0 -84 -154 -84h-229q-50 0 -74 16t-24 59q0 24 18.5 41t54.5 21q42 4 58 78l51 223h-508q-78 0 -78 65zM317 604q0 -10 5 -16.5t16 -9t18.5 -3t20.5 -0.5h330l102 472q18 86 18 108q0 16 -4.5 20.5t-13.5 4.5q-41 0 -131 -90 q-130 -128 -245.5 -282t-115.5 -204z" />
<glyph unicode="5" d="M82 258q0 88 41 132t115 44q42 0 67 -23t25 -67q0 -38 -3 -71.5t-3 -43.5q0 -25 1.5 -41t10 -42t24 -41t47 -27t76.5 -12q100 0 172 57.5t106 153.5t34 219q0 58 -8 103t-29 86.5t-62.5 64t-101.5 22.5q-86 0 -193 -57q-7 -3 -19.5 -10t-20 -11t-19.5 -7t-25 -3 q-53 0 -53 49q0 10 3 24t6.5 25t10.5 32.5t11 35.5l168 580q7 21 16 33.5t27.5 17.5t30 5.5t41.5 0.5h550q22 0 33 -10t13 -21t2 -31q0 -15 -8.5 -43.5t-25 -62.5t-47.5 -59t-69 -25h-481l-105 -375q134 49 287 49q87 0 154 -25t105 -61.5t62 -84.5t31.5 -86t7.5 -74 q0 -276 -175.5 -453.5t-452.5 -177.5q-55 0 -107 9.5t-101.5 33t-86.5 58t-59.5 89t-22.5 121.5z" />
<glyph unicode="6" d="M86 397q0 384 260 719q129 166 349.5 279.5t394.5 113.5q67 0 67 -49q0 -34 -22.5 -52t-81.5 -30q-223 -44 -398.5 -208.5t-232.5 -378.5q41 47 144 94t227 47q58 0 109.5 -17.5t97.5 -55.5t73 -108t27 -165q0 -118 -32.5 -221t-88.5 -178.5t-130.5 -130t-160 -82 t-174.5 -27.5q-84 0 -155 24.5t-121 67t-84.5 99.5t-51 122.5t-16.5 136.5zM369 360q0 -140 43.5 -217t132.5 -77q60 0 107.5 35t75.5 88.5t46.5 122.5t25.5 131.5t7 121.5q0 21 -1 38.5t-9.5 53t-23.5 60t-47 44t-77 19.5q-72 0 -139 -38.5t-107 -108.5q-34 -157 -34 -273z " />
<glyph unicode="7" d="M178 16q0 17 5.5 30t25.5 40l762 1065q39 53 39 74q0 5 -1 9t-4.5 7t-6.5 4.5t-9 3t-10.5 2t-13.5 0.5h-15h-17h-18h-282q-69 0 -104.5 -12t-92.5 -55q-7 -5 -21 -17t-18.5 -14.5t-14.5 -6t-22 -3.5q-38 0 -38 43q0 40 23.5 118.5t49.5 122.5q10 17 24 29t24.5 18.5 t32 9.5t30 3.5t38 0t36.5 -0.5h538h18.5h20h20t20 -1.5l17.5 -3.5t16 -6t12 -9t8.5 -12.5t2.5 -16.5q0 -73 -104 -244l-700 -1124q-15 -23 -20.5 -31t-18.5 -24t-24.5 -22.5t-23.5 -6.5h-122q-19 0 -30 1t-21.5 8.5t-10.5 20.5z" />
<glyph unicode="8" d="M39 348q0 69 21.5 134t67 127t127 112.5t191.5 79.5q-87 33 -145.5 111.5t-58.5 199.5q0 191 147 303.5t410 112.5q187 0 295 -81.5t108 -246.5q0 -157 -101.5 -273t-246.5 -157q125 -42 184.5 -126t59.5 -195q0 -96 -39.5 -185t-112 -160t-187 -114t-253.5 -43 q-100 0 -183 23.5t-147.5 70.5t-100.5 125.5t-36 181.5zM330 276q0 -32 7.5 -64t25 -67t54.5 -57t89 -22q45 0 79.5 9t59 28t37 33t31.5 40q38 53 61 153.5t23 176.5q0 114 -45 166.5t-138 52.5q-124 0 -204 -114.5t-80 -334.5zM500 1044q0 -32 7.5 -64.5t25 -66.5 t54.5 -55.5t87 -21.5q116 0 190 115t74 274q0 82 -40 133t-130 51q-136 0 -202 -95.5t-66 -269.5z" />
<glyph unicode="9" d="M123 25q0 33 20 46t84 25q207 43 386 222t225 366q-155 -149 -340 -149q-44 0 -88 11t-89.5 38.5t-79.5 68.5t-55.5 107t-21.5 149q0 114 39.5 223t112.5 198t190 143.5t260 54.5q208 0 314 -114.5t106 -303.5q0 -199 -67 -389t-187 -336q-142 -173 -352 -296.5 t-390 -123.5q-67 0 -67 60zM453 909q0 -24 4.5 -50t17.5 -55t31.5 -51.5t50 -37.5t70.5 -15q78 0 142 44t108 124q15 35 24.5 111t9.5 156q0 274 -176 274q-76 0 -132 -39t-88 -109.5t-47 -158t-15 -193.5z" />
<glyph unicode=":" horiz-adv-x="583" d="M119 92q0 73 44.5 120.5t112.5 47.5q53 0 80 -32.5t27 -88.5q0 -70 -45 -118t-113 -48q-48 0 -77 32t-29 87zM281 846q0 73 44.5 120.5t112.5 47.5q53 0 80 -32.5t27 -88.5q0 -70 -45 -118t-113 -48q-48 0 -77 32t-29 87z" />
<glyph unicode=";" horiz-adv-x="550" d="M-25 -338q0 33 39 49q60 27 109 71.5t49 100.5q0 31 -11 56.5t-24 40.5t-24 37.5t-11 48.5q0 165 166 165q119 0 119 -153q0 -101 -48 -189.5t-116 -150.5q-56 -50 -113.5 -85.5t-89.5 -35.5q-45 0 -45 45zM283 846q0 73 44.5 120.5t112.5 47.5q53 0 80 -32.5t27 -88.5 q0 -70 -45 -118t-113 -48q-48 0 -77 32t-29 87z" />
<glyph unicode="&#x3c;" horiz-adv-x="1327" d="M213 782l1176 688l57 -137l-938 -553l702 -551l-116 -139z" />
<glyph unicode="=" horiz-adv-x="1492" d="M334 504v164h1114v-164h-1114zM334 850v164h1114v-164h-1114z" />
<glyph unicode="&#x3e;" horiz-adv-x="1327" d="M156 229l931 551l-696 553l113 140l882 -693l-1179 -692z" />
<glyph unicode="?" horiz-adv-x="1089" d="M279 1092q0 116 71.5 216t199 161t281.5 61q162 0 254.5 -74t92.5 -229q0 -112 -72 -216t-242 -231q-148 -113 -219 -223q-17 -26 -41.5 -83.5t-46 -87.5t-49.5 -30q-55 0 -55 66q0 130 141 299q23 27 68 71.5t78 80.5t68 83.5t54 103.5t19 118q0 227 -158 227 q-92 0 -151.5 -53t-59.5 -140q0 -24 6 -60t6 -60q0 -46 -39.5 -84.5t-101.5 -38.5q-50 0 -77 31.5t-27 91.5zM330 92q0 73 44.5 120.5t112.5 47.5q53 0 80 -32.5t27 -88.5q0 -70 -45 -118t-113 -48q-48 0 -77 32t-29 87z" />
<glyph unicode="@" horiz-adv-x="1857" d="M68 518q0 170 52 324.5t143.5 271.5t211.5 204t260 132t285 45q187 0 341 -60.5t253 -163.5t153 -236t54 -281q0 -131 -40 -245.5t-103 -192.5t-141 -134.5t-154.5 -83t-143.5 -26.5q-174 0 -174 190q-41 -67 -129 -124.5t-184 -57.5q-103 0 -164.5 81.5t-61.5 213.5 t49 251.5t125.5 199t167 126.5t174.5 47q148 0 191 -88q33 34 61.5 51t41 19t31.5 2h2.5h2.5q11 0 18 -3t10 -9.5t4.5 -13t0 -16.5t-2.5 -16.5t-3.5 -17t-3.5 -14.5l-131 -608q-7 -42 -7 -54q0 -55 60 -55q61 0 122.5 39t112.5 108.5t83 177t32 232.5q0 199 -75 351 t-220.5 238.5t-341.5 86.5q-158 0 -290.5 -48t-225 -131.5t-157 -197t-94.5 -243t-30 -271.5q0 -141 31 -269t94.5 -237t153 -188.5t213.5 -124.5t270 -45q192 0 348.5 83t264.5 240q28 39 43 39q37 0 37 -28q0 -15 -13 -41q-20 -40 -57 -86t-102.5 -100.5t-143.5 -97.5 t-188.5 -72t-229.5 -29q-188 0 -350 66.5t-281 187.5t-187 302t-68 400zM752 389q0 -82 25.5 -126t70.5 -44q79 0 146.5 70t95.5 182l43 178q16 62 16 129q0 75 -31 101t-86 26q-57 0 -110 -48t-89.5 -122.5t-58.5 -166.5t-22 -179z" />
<glyph unicode="A" horiz-adv-x="1341" d="M-80 63q0 29 19.5 45.5t54.5 16.5q20 0 52 23.5t58 62.5l715 1077q15 20 15 43q0 13 -8.5 22t-24.5 9q-28 0 -39.5 11t-11.5 36q0 78 147 78h205q60 -1 72 -33q11 -28 10 -115v-29v-8.5v-7.5l-17 -1085q0 -84 37 -84q24 0 35.5 -14t11.5 -31q0 -92 -139 -92h-240 q-53 0 -78.5 17t-25.5 61q0 19 21.5 39t48.5 20t44.5 19.5t18.5 52.5l10 295l-465 -3l-174 -292q-10 -17 -10 -33q0 -39 31 -39q33 0 43 -13.5t10 -39.5q0 -40 -47 -62t-98 -22h-193q-39 0 -63.5 18.5t-24.5 56.5zM528 614h385l25 652z" />
<glyph unicode="B" horiz-adv-x="1386" d="M57 63q0 24 19 41t55 21q41 4 57 78l228 1071q7 34 0 55t-25 21q-21 0 -32 15.5t-11 39.5q0 82 127 82h326q180 0 196 -1q238 -11 324 -117q59 -71 59 -189q0 -84 -29.5 -153t-81.5 -115.5t-112 -77.5t-131 -50v-14q285 -60 285 -317q0 -214 -172 -339.5t-471 -125.5 h-512q-50 0 -74.5 16t-24.5 59zM459 182q0 -17 0.5 -22.5t8 -16t24.5 -13.5t49 -6t82 -3q92 0 163 22t113.5 56t69.5 82t37 94.5t10 97.5q0 52 -8.5 88.5t-34 74t-82 57.5t-143.5 20h-181l-100 -477q-8 -40 -8 -54zM594 831h158q166 0 253 86.5t87 241.5q0 55 -15.5 93.5 t-37 58t-58 30.5t-63.5 13t-70 2h-15q-84 0 -107.5 -8.5t-33.5 -51.5z" />
<glyph unicode="C" horiz-adv-x="1349" d="M182 492q0 149 36 288.5t98 252t147.5 206t184 156.5t207 98t216.5 35q64 0 127 -14t120.5 -42t93.5 -77.5t36 -112.5q0 -45 -18 -104t-53.5 -107.5t-76.5 -48.5q-25 0 -38 35t-20 92t-13 76q-34 101 -85.5 134.5t-150.5 33.5q-97 0 -182 -44t-148 -122.5t-108.5 -183.5 t-68.5 -229t-23 -257q0 -98 20 -174t51.5 -122.5t75.5 -76.5t88 -41.5t93 -11.5q96 0 175.5 44.5t131.5 105.5q24 26 35 36.5t26.5 18.5t34.5 8q12 0 23 -3t23.5 -17t12.5 -37q0 -117 -241 -254q-133 -76 -322 -76q-107 0 -196 29.5t-160.5 90.5t-111.5 167t-40 248z" />
<glyph unicode="D" horiz-adv-x="1552" d="M55 63q0 24 19 41t55 21q41 4 57 78l228 1071q7 34 0 55t-25 21q-21 0 -32 15.5t-11 39.5q0 82 127 82h479q52 0 86.5 -1t106 -11.5t122 -28.5t113.5 -56.5t102.5 -92t67 -139.5t27.5 -193q0 -145 -32 -273.5t-87.5 -226t-131 -178t-161 -135t-179.5 -92.5t-185 -55 t-178 -17h-469q-50 0 -74.5 16t-24.5 59zM461 190q0 -32 41.5 -46.5t138.5 -14.5q70 0 135.5 12t131.5 40.5t122.5 71.5t105.5 108.5t83.5 147.5t54.5 192t20 239q0 67 -8 121t-34 111.5t-68.5 96t-117 63t-175.5 24.5h-43.5t-39 -1.5t-37 -4.5t-29.5 -9t-26.5 -15 t-17.5 -22t-12 -30l-215 -1008q-10 -50 -10 -76z" />
<glyph unicode="E" horiz-adv-x="1269" d="M57 63q0 24 19 41t55 21q41 4 57 78l228 1071q7 34 0 55t-25 21q-21 0 -32 15.5t-11 39.5q0 82 127 82h768q9 0 27 1q12 1 19 1q3 -1 5 -1q6 0 18 -3.5t16 -11.5t7.5 -22.5t3.5 -37.5q0 -49 -27 -125t-68.5 -136t-76.5 -60q-29 0 -37 38q-5 24 -6 50q0 15 2 31q2 18 2 34 q0 22 -4 41q-7 35 -32.5 50t-58 17.5t-116.5 2.5h-11h-10.5h-12.5h-33h-54.5t-39 -3t-32 -8.5t-18 -16.5t-12.5 -28l-96 -450l289 18q30 2 53 2q48 0 69 -8q31 -12 31 -63q0 -52 -27 -79.5t-69 -27.5q-34 0 -90 5.5t-141 15t-142 14.5l-114 -522q-4 -24 -4 -41 q0 -20 16 -26.5t59 -6.5h45.5h45.5t38 0.5t39.5 1t32 2t34 3.5t28.5 5q73 15 136.5 56.5t127.5 126.5q30 39 42 48t38 9q32 0 32 -43q0 -26 -28.5 -101.5t-59.5 -138.5q-38 -77 -67.5 -100t-67.5 -23q-15 0 -127 5.5t-141 5.5h-520q-50 0 -74.5 16t-24.5 59z" />
<glyph unicode="F" horiz-adv-x="1200" d="M55 63q0 24 19 41t55 21q41 4 57 78l230 1071q7 34 0 55t-25 21q-21 0 -32 15.5t-11 39.5q0 82 127 82h768q9 0 27 1q12 1 19 1q3 -1 5 -1q6 0 18 -3.5t16 -11.5t7.5 -22.5t3.5 -37.5q0 -49 -27 -125t-68.5 -136t-76.5 -60q-29 0 -37 38q-5 24 -6 50q0 15 2 31q2 18 2 34 q0 22 -4 41q-7 35 -32.5 50t-58 17.5t-116.5 2.5h-11h-10.5h-12.5h-33h-54.5t-39 -3t-32 -8.5t-18 -16.5t-12.5 -28l-96 -450l289 18q30 2 53 2q48 0 69 -8q31 -12 31 -63q0 -52 -27 -79.5t-69 -27.5q-34 0 -90 5.5t-141 15t-142 14.5l-114 -524q-6 -27 -6 -41q0 -36 36 -41 q16 -2 33 -14t17 -35q0 -84 -154 -84h-229q-50 0 -74.5 16t-24.5 59z" />
<glyph unicode="G" horiz-adv-x="1435" d="M182 492q0 149 36 288.5t98 252t147.5 206t184 156.5t207 98t216.5 35q64 0 127 -14t120.5 -42t93.5 -77.5t36 -112.5q0 -45 -18 -104t-53.5 -107.5t-76.5 -48.5q-25 0 -38 35t-20 92t-13 76q-34 101 -85.5 134.5t-150.5 33.5q-97 0 -182 -44t-148 -122.5t-108.5 -183.5 t-68.5 -229t-23 -257q0 -114 28.5 -199.5t76.5 -133t103 -70.5t115 -23q87 0 138.5 13.5t89.5 45.5l45 211q5 21 5 46q0 18 -3 38q-2 18 -16.5 28.5t-30.5 14.5t-29.5 19t-13.5 41q0 19 12 32t26.5 19.5t40.5 9.5t39 3.5t37 0.5h228q90 0 90 -65q0 -56 -70 -56 q-19 0 -32.5 -22.5t-18.5 -52.5l-14 -74q-17 -87 -17 -117q0 -19 -2.5 -31t-16 -31.5t-40.5 -39.5q-129 -98 -260 -152.5t-283 -54.5q-105 0 -196 33.5t-161 98t-110.5 168.5t-40.5 235z" />
<glyph unicode="H" horiz-adv-x="1488" d="M57 63q0 24 19 41t55 21q41 4 57 78l228 1071q7 34 0 55t-25 21q-21 0 -32 15.5t-11 39.5q0 82 127 82h244q49 0 73.5 -16.5t24.5 -59.5q0 -23 -20.5 -39t-53.5 -22q-16 -3 -33 -24t-24 -52l-92 -430h547l90 430q7 34 0 55t-25 21q-21 0 -32 15.5t-11 39.5q0 82 127 82 h244q49 0 73.5 -16.5t24.5 -59.5q0 -23 -20 -39t-53 -22q-17 -3 -34.5 -24.5t-23.5 -51.5l-227 -1071q-6 -27 -6 -41q0 -36 37 -41q16 -2 32.5 -14t16.5 -35q0 -84 -154 -84h-229q-50 0 -74.5 16t-24.5 59q0 24 19 41t55 21q42 4 58 78l110 512h-547l-108 -512 q-6 -27 -6 -41q0 -36 36 -41q16 -2 33 -14t17 -35q0 -84 -154 -84h-229q-50 0 -74.5 16t-24.5 59z" />
<glyph unicode="I" horiz-adv-x="681" d="M57 63q0 24 19 41t55 21q41 4 57 78l228 1071q7 34 0 55t-25 21q-21 0 -32 15.5t-11 39.5q0 82 127 82h244q49 0 73.5 -16.5t24.5 -59.5q0 -23 -20.5 -39t-53.5 -22q-17 -3 -34 -24.5t-23 -51.5l-227 -1071q-6 -27 -6 -41q0 -36 36 -41q16 -2 33 -14t17 -35 q0 -84 -154 -84h-229q-50 0 -74.5 16t-24.5 59z" />
<glyph unicode="J" horiz-adv-x="698" d="M-223 -266q0 45 23.5 76.5t56.5 31.5q35 0 78.5 -23.5t70.5 -23.5q26 0 47 10.5t36.5 34t26.5 47.5t21.5 67t17 75t17 88.5t18.5 91.5l228 1065q7 34 0 55t-25 21q-21 0 -32 15.5t-11 39.5q0 82 127 82h244q49 0 73.5 -16.5t24.5 -59.5q0 -23 -20.5 -39t-53.5 -22 q-17 -3 -34 -24.5t-23 -51.5l-176 -834q-49 -229 -152 -422t-217 -292q-78 -67 -135.5 -99.5t-122.5 -32.5q-45 0 -76.5 35.5t-31.5 104.5z" />
<glyph unicode="K" horiz-adv-x="1363" d="M57 63q0 24 19 41t55 21q41 4 57 78l228 1071q7 34 0 55t-25 21q-21 0 -32 15.5t-11 39.5q0 82 127 82h244q49 0 73.5 -16.5t24.5 -59.5q0 -23 -20.5 -39t-53.5 -22q-16 -3 -33 -24t-24 -52l-92 -430q58 22 155 81t193 134q84 67 143.5 137.5t59.5 120.5q0 15 -21.5 39 t-21.5 49t12.5 42t33 25.5t40 11.5t41.5 3h135q28 0 42.5 -1.5t31.5 -8.5t24.5 -24t7.5 -44q0 -36 -48 -89t-167 -161q-67 -60 -138 -116t-107.5 -83t-105 -74t-79.5 -55q32 -27 217 -370q12 -23 40 -74.5t40 -73.5t31 -56t33 -54t26 -35q10 -12 31.5 -30.5t31 -33 t9.5 -34.5q0 -43 -52.5 -73t-129.5 -30q-114 0 -203 178q-70 137 -155 319t-136 271l-37 -10l-112 -522q-6 -27 -6 -41q0 -36 36 -41q16 -2 33 -14t17 -35q0 -84 -154 -84h-229q-50 0 -74.5 16t-24.5 59z" />
<glyph unicode="L" horiz-adv-x="1177" d="M57 63q0 24 19 41t55 21q41 4 57 78l228 1071q7 34 0 55t-25 21q-21 0 -32 15.5t-11 39.5q0 82 127 82h244q49 0 73.5 -16.5t24.5 -59.5q0 -23 -20.5 -39t-53.5 -22q-16 -3 -33 -24t-24 -52l-229 -1069q-4 -24 -4 -41q0 -20 16 -26.5t59 -6.5h45.5h45.5t38 0.5t39.5 1 t32 2t34 3.5t28.5 5q73 15 136.5 56.5t127.5 126.5q30 39 42 48t38 9q32 0 32 -43q0 -26 -27.5 -100t-58.5 -136q-38 -78 -68.5 -102.5t-68.5 -24.5q-15 0 -127 5.5t-141 5.5h-520q-50 0 -74.5 16t-24.5 59z" />
<glyph unicode="M" horiz-adv-x="1964" d="M57 63q0 24 19 41t55 21q41 4 57 78l240 1071q7 34 0 55t-25 21q-49 0 -49 55q0 82 138 82h196q26 0 40.5 -3t24 -20t11.5 -25t9 -45q2 -9 3 -14l193 -1052l702 1091q15 24 25 35.5t37.5 22t68.5 10.5h189q53 0 78.5 -17.5t25.5 -58.5q0 -50 -74 -61q-12 -1 -16 -2.5 t-14 -7.5t-16.5 -22.5t-12.5 -43.5l-227 -1071q-6 -27 -6 -41q0 -36 36 -41q16 -2 33 -14t17 -35q0 -84 -154 -84h-229q-50 0 -74.5 16t-24.5 59q0 24 19 41t55 21q41 4 57 78l209 971l-704 -1094q-46 -70 -69 -90q-27 -24 -54 -25h-5q-16 -1 -27 5q-13 6 -21 23t-12 31 t-9 39l-223 1113l-195 -977q-4 -28 -4 -45q0 -31 33 -31q45 0 45 -51q0 -42 -39.5 -63t-89.5 -21h-143q-50 0 -74.5 16t-24.5 59z" />
<glyph unicode="N" horiz-adv-x="1515" d="M39 63q0 24 19 41t55 21q41 4 57 78l240 1071q7 34 0 55t-25 21q-49 0 -49 55q0 82 137 82h158q62 0 83 -58q1 -1 1 -2l471 -1013l170 862q4 28 4 45q0 31 -33 31q-45 0 -45 51q0 42 39.5 63t89.5 21h143q50 0 74.5 -16.5t24.5 -59.5q0 -24 -19 -40.5t-55 -20.5 q-41 -4 -57 -78l-267 -1198q-7 -36 -13.5 -54.5t-23.5 -35t-44 -17.5h-2q-34 0 -62 26q-30 27 -47 66l-528 1139l-199 -999q-4 -28 -4 -45q0 -31 33 -31q45 0 45 -51q0 -42 -39.5 -63t-89.5 -21h-144q-50 0 -74 16t-24 59z" />
<glyph unicode="O" horiz-adv-x="1583" d="M188 516q0 181 52.5 344t141.5 283t203.5 208t240 132.5t249.5 44.5q77 0 144.5 -14.5t135.5 -53.5t116.5 -100t79 -161t30.5 -230q0 -168 -49 -325.5t-135 -280t-197.5 -215t-242.5 -142t-263 -49.5q-79 0 -151 18.5t-137.5 61t-113.5 106t-76 159t-28 214.5zM477 557 q0 -124 25 -217t68.5 -145.5t94 -77.5t107.5 -25q120 0 220.5 72t164.5 191t99.5 267.5t35.5 305.5q0 125 -23 217t-65 145t-93 78t-114 25q-100 0 -185.5 -46.5t-146.5 -126.5t-104 -187t-63.5 -228t-20.5 -248z" />
<glyph unicode="P" horiz-adv-x="1351" d="M57 63q0 24 19 41t55 21q41 4 57 78l228 1071q7 34 0 55t-25 21q-21 0 -32 15.5t-11 39.5q0 82 127 82h449q56 0 99 -2t99.5 -10t98 -21.5t84.5 -39t70.5 -60.5t45 -88t17.5 -119q0 -89 -25.5 -169t-80 -150.5t-133 -121.5t-192 -80.5t-249.5 -29.5q-84 0 -207 35 l-94 -432q-4 -14 -4 -37q0 -36 36 -41q16 -2 33 -14t17 -35q0 -84 -154 -84h-229q-50 0 -74.5 16t-24.5 59zM590 817q-2 -8 -2 -15q0 -18 11 -34q15 -20 45.5 -29.5t62.5 -13.5t69 -4q84 0 151 27.5t107 70t66.5 97t36.5 103.5t10 95q0 131 -75 184.5t-224 53.5h-30h-14 q-66 0 -83 -9q-21 -11 -29 -47z" />
<glyph unicode="Q" horiz-adv-x="1564" d="M174 516q0 181 52.5 344t141.5 283t203.5 208t240 132.5t249.5 44.5q77 0 144.5 -14.5t135.5 -53.5t116.5 -100t79 -161t30.5 -230q0 -289 -145.5 -530t-368.5 -371q66 -74 137 -131q25 -20 56 -41t45 -30.5t24 -23t10 -28.5q0 -30 -45.5 -54t-108.5 -24q-32 0 -61 7 t-55 24t-45 31.5t-43 43t-36.5 44.5t-37 51t-33.5 47q-92 -27 -180 -27q-79 0 -151 18.5t-137.5 61t-113.5 106t-76 159t-28 214.5zM463 557q0 -124 24 -217t65.5 -145.5t91 -77.5t106.5 -25h16q-12 12 -28.5 27t-24.5 22.5t-16.5 16.5t-11.5 16t-3 14q0 26 27.5 43t83.5 17 q89 0 176 -90q145 98 227 311.5t82 458.5q0 125 -23 217t-65 145t-93 78t-114 25q-100 0 -185.5 -46.5t-146.5 -126.5t-104 -187t-63.5 -228t-20.5 -248z" />
<glyph unicode="R" horiz-adv-x="1394" d="M57 63q0 24 19 41t55 21q40 4 55 74l232 1075q7 34 0 55t-25 21q-21 0 -32 15.5t-11 39.5q0 82 127 82h449q46 0 77 -0.5t77 -4t78.5 -10t73 -18.5t68 -29t56 -43t45.5 -59t28 -77.5t11 -98.5q0 -101 -39 -184t-95 -133.5t-129 -87t-130 -52.5t-109 -22q29 -33 121 -213 q123 -237 170 -293q10 -12 31.5 -31t30.5 -33.5t9 -34.5q0 -43 -52 -72.5t-130 -29.5q-36 0 -67 14t-56 43t-41.5 54.5t-38.5 66.5q-30 56 -99.5 204.5t-117 233t-73.5 89.5q-27 2 -66 6l-102 -473q-4 -14 -4 -37q0 -36 36 -41q16 -2 33 -14t17 -35q0 -84 -154 -84h-229 q-50 0 -74.5 16t-24.5 59zM588 805q91 -27 207 -27q86 0 155 28.5t111.5 76t65 107t22.5 124.5q0 135 -69.5 186.5t-209.5 51.5q-42 0 -64.5 -0.5t-44.5 -2.5t-31 -5t-18 -10t-12 -15t-6 -23z" />
<glyph unicode="S" horiz-adv-x="1214" d="M115 201q0 32 7 69.5t21 76t40.5 64t60.5 25.5q27 0 41.5 -33t27 -86t25.5 -77q86 -156 276 -156q39 0 77.5 8t79 27.5t71 48.5t50 75.5t19.5 104.5q0 27 -4 49.5t-15 44t-22 39t-34 38t-41.5 36t-53 39.5t-60.5 41t-73 48t-82 54q-118 80 -179.5 160.5t-61.5 173.5 q0 97 37.5 176t98 130.5t139.5 86t158.5 49.5t158.5 15q108 0 194.5 -22t141.5 -71t55 -120q0 -21 -7.5 -56.5t-21 -75t-37 -68t-51.5 -28.5q-23 0 -39.5 29t-32.5 80.5t-24 69.5q-26 53 -87 93t-153 40q-135 0 -212 -57.5t-77 -174.5q0 -36 12.5 -67t29.5 -53t51 -47.5 t60.5 -41.5t76.5 -45.5t80 -48.5q195 -123 267.5 -211t72.5 -217q0 -101 -44.5 -184.5t-113.5 -137t-156.5 -91t-170.5 -53t-159 -15.5q-80 0 -152 14.5t-132.5 43t-96.5 77t-36 111.5z" />
<glyph unicode="T" horiz-adv-x="1335" d="M266 1194q0 88 25 201q9 34 19.5 53t29 27.5t33 10t47.5 1.5h938q6 1 25 1h16.5h9.5q7 0 20.5 -4t19 -11.5t10.5 -22.5t5 -37q0 -49 -27 -125t-68.5 -136t-76.5 -60q-30 0 -38 38q-5 24 -5 50q0 15 2 31q2 18 2 34q0 22 -4 41q-10 48 -50 58q-37 10 -134 10h-19h-42 l-250 -1155q-4 -24 -4 -37q0 -36 36 -41q16 -2 33 -14t17 -35q0 -84 -154 -84h-229q-50 0 -74.5 16t-24.5 59q0 24 19 41t55 21q17 2 33.5 21.5t23.5 52.5l250 1163h-102q-67 0 -105 -20t-63 -56q-22 -31 -54.5 -88.5t-53.5 -81.5t-46 -24q-45 0 -45 102z" />
<glyph unicode="U" horiz-adv-x="1449" d="M231 324q0 85 23 194l160 754q5 22 5 38q0 40 -30 40q-21 0 -32 15.5t-11 39.5q0 82 127 82h244q49 0 73.5 -16.5t24.5 -59.5q0 -23 -20.5 -39t-53.5 -22q-17 -3 -33.5 -24t-23.5 -54l-141 -664q-37 -180 -37 -239q0 -269 225 -269q62 0 115 18.5t89.5 48t66.5 70 t48 81.5t32 85.5t21 78.5t13 64q3 16 4 23l150 703q5 22 5 38q0 40 -30 40q-21 0 -32 15.5t-11 39.5q0 82 127 82h158q49 0 73.5 -16.5t24.5 -59.5q0 -23 -20.5 -39t-53.5 -22q-17 -3 -33.5 -24t-23.5 -54l-154 -731q-29 -136 -75.5 -238t-102 -165.5t-127.5 -102.5 t-143.5 -53.5t-157.5 -14.5q-78 0 -141 8t-125 31.5t-103.5 62t-67.5 103.5t-26 152z" />
<glyph unicode="V" horiz-adv-x="1370" d="M274 1405q0 82 127 82h244q49 0 73.5 -16.5t24.5 -59.5q0 -23 -20 -39t-53 -22q-15 -3 -22.5 -26.5t-4.5 -51.5l86 -934l422 739q102 178 102 236q0 14 -7 25.5t-21 11.5q-21 0 -32 15.5t-11 39.5q0 82 131 82h157q50 0 74.5 -16.5t24.5 -59.5q0 -23 -20.5 -39t-53.5 -22 q-24 -5 -74 -84l-702 -1180q-18 -31 -32 -50.5t-33 -40.5t-39.5 -31.5t-43.5 -10.5q-34 0 -49.5 26t-21.5 84l-135 1203q-9 84 -48 84q-21 0 -32 15.5t-11 39.5z" />
<glyph unicode="W" horiz-adv-x="1910" d="M256 1405q0 82 127 82h244q49 0 73.5 -16.5t24.5 -59.5q0 -23 -20.5 -39t-53.5 -22q-25 -5 -25 -61q0 -8 1 -17l53 -848l483 975q35 72 58 90t61 18q30 0 38 -16.5t17 -91.5l123 -983l299 710q62 151 62 187q0 14 -7.5 25.5t-21.5 11.5q-21 0 -32 15.5t-11 39.5 q0 82 131 82h158q49 0 73.5 -16.5t24.5 -59.5q0 -23 -20.5 -39t-53.5 -22q-16 -3 -37 -27t-36 -57l-543 -1180q-63 -133 -125 -133q-36 0 -49.5 26t-20.5 84l-125 981l-477 -958q-67 -133 -139 -133q-37 0 -53 28t-19 82l-92 1203q-6 84 -47 84q-21 0 -32 15.5t-11 39.5z " />
<glyph unicode="X" horiz-adv-x="1368" d="M-10 66q0 23 19 41t52 18q54 0 207 172l379 430l-215 545q-15 38 -33 58t-51 20q-21 0 -32 15.5t-11 39.5q0 82 162 82h248q49 0 73.5 -16.5t24.5 -59.5q0 -49 -63 -59q-27 -5 -27 -29q0 -30 8 -51l117 -344l250 311q36 44 47.5 67.5t11.5 43.5q0 11 -12.5 18t-25.5 16 t-13 25q0 23 8.5 38t19 23t31.5 12t35 4.5t41 0.5h135q119 0 119 -78q0 -22 -19.5 -40.5t-52.5 -18.5q-24 0 -46.5 -13t-34 -25t-31.5 -36l-410 -485l223 -590q30 -78 82 -78q21 0 32 -15.5t11 -39.5q0 -82 -159 -82h-248q-50 0 -74.5 16t-24.5 59q0 50 64 60q27 5 27 29 q0 27 -9 51l-129 393l-299 -358q-53 -65 -53 -111q0 -9 8 -15.5t17.5 -10t17.5 -12.5t8 -21q0 -78 -135 -78h-151q-119 0 -119 78z" />
<glyph unicode="Y" horiz-adv-x="1273" d="M244 1405q0 82 162 82h247q50 0 74.5 -16.5t24.5 -59.5q0 -49 -64 -59q-26 -5 -26 -29q0 -19 8 -51l133 -551l348 561q18 27 18 59q0 12 -8 21t-17.5 13t-17.5 13t-8 21q0 23 8.5 38t19 23t31.5 12t35 4.5t41 0.5h136q118 0 118 -78q0 -23 -19 -41t-52 -18 q-62 0 -113 -74l-487 -711l-74 -366q-4 -24 -4 -37q0 -36 37 -41q16 -2 32.5 -14t16.5 -35q0 -84 -154 -84h-229q-50 0 -74.5 16t-24.5 59q0 24 19 41t55 21q17 2 34 21.5t24 52.5l73 366l-196 707q-22 78 -84 78q-21 0 -32 15.5t-11 39.5z" />
<glyph unicode="Z" horiz-adv-x="1206" d="M57 39q0 25 10 50t20 39t34 42t33 39l890 1153h-190q-98 0 -143 -2.5t-96.5 -20t-86.5 -53.5q-33 -34 -61 -85t-47 -80t-43 -29q-45 0 -45 102q0 93 24 201q9 34 19.5 53t29 27.5t33 10t47.5 1.5h760q46 0 60 -20t14 -60q0 -94 -92 -213l-826 -1067q323 0 398 16 q72 14 135 56t127 127q30 39 42 48t38 9q33 0 33 -43q0 -48 -93 -234q-38 -79 -66.5 -104t-64.5 -25q-15 0 -127 5.5t-141 5.5h-512q-8 0 -25 -1t-26.5 -1t-23 2t-20.5 7.5t-12.5 16.5t-5.5 27z" />
<glyph unicode="[" horiz-adv-x="735" d="M90 -410l414 1938h452l-26 -129h-209l-359 -1682h207l-26 -127h-453z" />
<glyph unicode="\" horiz-adv-x="897" d="M297 1503l147 58l353 -1946l-144 -55z" />
<glyph unicode="]" horiz-adv-x="735" d="M-14 -410l26 129h209l359 1682h-207l26 127h453l-414 -1938h-452z" />
<glyph unicode="^" horiz-adv-x="1042" d="M270 942l553 596l303 -596h-133l-215 281l-358 -281h-150z" />
<glyph unicode="_" horiz-adv-x="1142" d="M-104 -408l24 119h1127l-25 -119h-1126z" />
<glyph unicode="`" horiz-adv-x="620" d="M315 1440q12 51 56 78q40 24 92 24q36 0 57.5 -22.5t28.5 -73.5l49 -346h-84l-182 246q-26 29 -17 94z" />
<glyph unicode="a" horiz-adv-x="1153" d="M115 311q0 132 38 251t100.5 205.5t141.5 150.5t163 96q82 31 160 30h5q74 0 135.5 -28t87.5 -74q13 13 25.5 24.5t22.5 19.5t20.5 14.5t18 11t17 7t14.5 4t14 2.5t11.5 1h11h9.5q12 0 20.5 -3.5t11.5 -11.5q4 -9 6 -15q1 -4 1 -9q-1 -4 -1 -10l-3 -19.5t-4 -20.5t-4 -17 l-156 -715q-4 -20 -4 -41q0 -29 28.5 -49t28.5 -45q0 -43 -47.5 -71t-124.5 -28q-53 1 -87 47q-27 37 -27 115q0 21 2 45q-51 -79 -148 -143t-209 -64q-124 0 -201 92.5t-77 247.5zM381 328q0 -93 38.5 -140t94.5 -47q93 0 164 75.5t100 207.5l47 213q23 106 23 147 q0 150 -137 150q-90 0 -167 -87t-120 -226t-43 -293z" />
<glyph unicode="b" horiz-adv-x="1169" d="M129 23q0 23 23 86t30 98l236 1100q6 32 1 52.5t-20 20.5q-28 0 -34.5 12t-6.5 38q0 39 39 59t82 20h170q41 0 41 -59q0 -27 -8 -66l-100 -469q107 129 295 129q146 0 224.5 -99.5t78.5 -278.5q0 -193 -79.5 -357t-214.5 -259t-292 -95q-88 0 -151 34t-89 83 q-28 -36 -74.5 -64t-84.5 -28q-66 0 -66 43zM455 258q0 -88 41 -139t108 -51q25 0 41.5 2.5t45.5 13t58 38.5t58 73q46 71 78.5 216.5t32.5 239.5q0 124 -33 185t-121 61q-91 0 -154.5 -68.5t-79.5 -146.5l-61 -305q-14 -72 -14 -119z" />
<glyph unicode="c" horiz-adv-x="974" d="M121 381q0 119 39.5 227t104 186t145 135.5t165 86t162.5 28.5q150 0 221 -43q62 -38 62 -104q0 -80 -28 -134t-74 -54q-23 0 -39 23t-27.5 55.5t-27 64.5t-45.5 55t-74 23q-100 0 -175.5 -78t-112 -199t-36.5 -264q0 -68 17 -126t60.5 -101t108.5 -43q69 0 126.5 26.5 t94.5 67.5q41 47 72 47q48 0 58 -39q3 -9 3 -19q0 -26 -20 -55q-51 -72 -163.5 -124t-215.5 -52q-181 0 -291 103t-110 307z" />
<glyph unicode="d" horiz-adv-x="1159" d="M121 313q0 132 38 251t100.5 205.5t141.5 150t163.5 95.5t164.5 32q124 0 180 -68l72 332q6 24 6 41q0 28 -33 28q-16 0 -28.5 14t-12.5 36q0 39 33.5 59t87.5 20h162q28 0 41.5 -6.5t13.5 -29.5q0 -31 -12 -89l-252 -1177q-7 -34 0 -55.5t19 -30t23 -21t11 -28.5 q0 -43 -48 -71t-124 -28q-53 1 -87 47q-27 37 -27 115q0 21 2 45q-51 -79 -148 -143t-209 -64q-124 0 -201 92.5t-77 247.5zM387 330q0 -92 39 -139.5t94 -47.5q93 0 163 75t101 208l50 209q20 92 20 151q0 89 -36 119.5t-101 30.5q-90 0 -167 -86t-120 -225t-43 -295z" />
<glyph unicode="e" horiz-adv-x="1001" d="M119 381q0 171 78.5 323t216.5 246t301 94q36 0 65 -2t68.5 -8.5t69.5 -20.5t57.5 -36t42 -58t14.5 -83q0 -75 -38 -135.5t-101.5 -99t-134 -61t-146.5 -30.5q-37 -4 -93 -6.5t-93 -3.5h-37q-10 -55 -10 -111q0 -72 17 -130t61.5 -99t113.5 -41q125 0 232 131 q22 29 38.5 40t43.5 11q24 0 38.5 -15t14.5 -36q0 -33 -23 -66q-64 -92 -174 -152.5t-241 -60.5q-186 0 -283.5 111.5t-97.5 298.5zM410 598q76 4 125 8t90 15.5t79 33.5t60 60.5t22 89.5q0 121 -116 121q-101 0 -167.5 -94.5t-92.5 -233.5z" />
<glyph unicode="f" horiz-adv-x="808" d="M84 63q0 23 15.5 40.5t47.5 17.5q36 0 50 69l147 691h-96q-31 0 -31 22q0 40 32 77.5t81 37.5h43l28 135q33 151 162 265t305 114q37 0 72.5 -4.5t75.5 -16.5t64 -39t24 -65q0 -72 -24 -118t-68 -46q-22 0 -38.5 17t-34.5 54t-21 42q-25 39 -45.5 53t-45.5 14 q-69 0 -110 -73.5t-72 -216.5l-24 -115h192h14h12.5t9.5 -0.5t8.5 -2.5t5.5 -5t4 -8.5t1 -12.5q0 -41 -32.5 -74.5t-81.5 -33.5h-162l-148 -691q-4 -28 -4 -36q0 -12 7 -22t20 -13q41 -9 41 -47q0 -40 -32 -62t-93 -22h-213q-37 0 -61.5 19t-24.5 56z" />
<glyph unicode="g" horiz-adv-x="1161" d="M12 -334q0 79 26 117.5t62 38.5q12 0 23 -4.5t23 -18.5t17.5 -21t20.5 -31t19 -30q20 -32 34 -50.5t37 -41t50 -33t61 -10.5q64 0 115.5 28t82.5 66.5t56.5 97.5t36.5 100.5t22 96.5l39 195h-6q-83 -96 -159.5 -145.5t-184.5 -49.5q-127 0 -202.5 91t-75.5 249 q0 137 38 257.5t100 205.5t141.5 147.5t164 92.5t164.5 30q156 0 217 -92q81 74 149 74q58 0 58 -41q0 -12 -11 -65l-192 -936q-23 -114 -75.5 -204.5t-115 -145t-137 -91t-137.5 -50t-121 -13.5q-168 0 -254 42t-86 144zM375 328q0 -88 38.5 -137.5t94.5 -49.5 q85 0 161.5 86.5t102.5 196.5l49 209q21 97 21 151q0 45 -12 76t-34.5 45t-45 19.5t-52.5 5.5q-92 0 -167 -85.5t-115.5 -222.5t-40.5 -294z" />
<glyph unicode="h" horiz-adv-x="1193" d="M84 63q0 23 15.5 40.5t47.5 17.5q36 0 50 69l237 1117q6 27 6 51q0 22 -22 22q-43 0 -43 50q0 40 36.5 59.5t82.5 19.5h161q33 0 44.5 -11t11.5 -40q0 -28 -11 -74l-108 -497q101 95 186 126t168 31q217 0 217 -182q0 -72 -18 -160l-105 -489q0 -3 -5 -27t-5 -32 q0 -12 7.5 -23.5t19.5 -11.5q21 0 36 -12t15 -35q0 -39 -36.5 -61.5t-98.5 -22.5h-152q-33 0 -46 17.5t-13 55.5q0 18 24 129l93 426q20 86 20 152q0 104 -112 104h-15q-70 -3 -140 -67.5t-87 -142.5l-94 -449q-1 -4 -6 -27.5t-5 -31.5q0 -12 7 -22t20 -13q41 -9 41 -47 q0 -40 -32 -62t-93 -22h-213q-37 0 -61.5 19t-24.5 56z" />
<glyph unicode="i" horiz-adv-x="649" d="M86 63q0 23 16 40.5t48 17.5q35 0 49 69l135 629q7 34 2.5 54t-19.5 20q-41 0 -41 49q0 37 36.5 57.5t82.5 20.5h174q22 0 31.5 -9t9.5 -32q0 -36 -16 -105l-148 -684q-4 -28 -4 -36q0 -12 7 -22t20 -13q41 -9 41 -47q0 -40 -32 -62t-93 -22h-213q-37 0 -61.5 19 t-24.5 56zM406 1251q0 82 42 121t103 39q56 0 88.5 -29t32.5 -86q0 -73 -43.5 -114t-102.5 -41q-52 0 -86 32.5t-34 77.5z" />
<glyph unicode="j" horiz-adv-x="606" d="M-221 -369q0 45 23.5 77t56.5 32q35 0 78.5 -23.5t70.5 -23.5q26 0 48 14.5t38.5 42t29 55.5t23 68t16 65.5t12 61.5t7.5 43l168 774q8 34 3.5 55t-19.5 21q-41 0 -41 49q0 37 36.5 57.5t82.5 20.5h174q22 0 31.5 -9t9.5 -32q0 -16 -17 -107l-114 -536 q-25 -119 -72.5 -236t-102 -206.5t-99.5 -151t-83 -102.5q-68 -73 -127 -110.5t-125 -37.5q-45 0 -76.5 35t-31.5 104zM418 1251q0 79 42.5 119.5t102.5 40.5q55 0 88 -31t33 -84q0 -69 -44 -112t-101 -43q-50 0 -85.5 30t-35.5 80z" />
<glyph unicode="k" horiz-adv-x="1050" d="M53 63q0 23 16 40.5t48 17.5q35 0 49 69l237 1117q7 31 7 51q0 22 -23 22q-43 0 -43 50q0 40 36.5 59.5t82.5 19.5h162q33 0 44 -11t11 -40q0 -32 -10 -74l-166 -772h16q9 0 24 2t60.5 19t89.5 47q146 99 146 176q0 16 -20.5 43t-20.5 43q0 78 119 78h112q86 0 86 -68 q0 -13 -2.5 -23.5t-10.5 -23.5t-14.5 -21.5t-24 -25.5t-29 -27.5t-39 -34.5t-44.5 -40q-73 -67 -237 -181l164 -282q36 -62 68.5 -105.5t47.5 -58t24 -28t9 -29.5q0 -39 -42.5 -65.5t-106.5 -26.5q-39 0 -71 15t-60.5 49.5t-47.5 66.5t-49 90q-25 49 -81.5 165.5 t-73.5 145.5h-13l-63 -299q0 -3 -5 -27t-5 -32q0 -29 26 -35q41 -9 41 -47q0 -40 -32 -62t-93 -22h-213q-37 0 -61.5 19t-24.5 56z" />
<glyph unicode="l" horiz-adv-x="645" d="M76 63q0 23 15.5 40.5t47.5 17.5q35 0 49 69l238 1117q7 34 2.5 53.5t-18.5 19.5q-16 0 -26 3.5t-13.5 12t-4.5 15t-1 19.5q0 39 33 59t87 20h172q34 -1 40 -37q2 -12 2 -24q0 -28 -9 -64l-248 -1171q0 -3 -5 -27t-5 -32q0 -12 7 -22t20 -13q41 -9 41 -47q0 -40 -32 -62 t-93 -22h-213q-37 0 -61.5 19t-24.5 56z" />
<glyph unicode="m" horiz-adv-x="1734" d="M88 63q0 23 16 40.5t48 17.5q35 0 49 69l135 629q4 24 4 35q0 39 -23 39q-49 0 -49 49q0 32 38 55t89 23h152q57 0 57 -84q0 -30 -10 -82q149 190 360 190q81 0 127.5 -49t46.5 -145q65 84 166 139t209 55q91 0 140 -45.5t49 -128.5q0 -66 -15 -143l-110 -514 q-11 -38 -11 -59q0 -12 7.5 -23.5t19.5 -12.5q21 0 36 -11.5t15 -34.5q0 -39 -36.5 -61.5t-98.5 -22.5h-151q-33 0 -46.5 17.5t-13.5 55.5q0 15 5 41.5t12 53.5t8 34l94 445q18 87 18 133q0 109 -82 109q-71 0 -146.5 -70t-98.5 -182l-86 -412q-1 -4 -6 -27.5t-5 -31.5 q0 -12 7 -22t20 -14q41 -9 41 -46q0 -40 -32 -62t-93 -22h-213q-37 0 -61.5 19t-24.5 56q0 23 16 40.5t48 17.5q35 0 49 69l94 445l6 28q6 28 9 52t3 47q0 110 -88 110q-74 0 -150.5 -93.5t-96.5 -186.5l-80 -379q-1 -4 -6 -27.5t-5 -31.5q0 -12 7 -22t20 -14q41 -9 41 -46 q0 -40 -32 -62t-93 -22h-213q-37 0 -61.5 19t-24.5 56z" />
<glyph unicode="n" horiz-adv-x="1204" d="M88 63q0 23 16 40.5t48 17.5q35 0 49 69l129 627q8 34 3 55t-22 21q-27 0 -37 12t-10 35q0 39 35.5 59.5t91.5 20.5h152q35 0 49 -33q10 -24 10 -49q0 -9 -1 -18l-5 -33q101 95 186 126t168 31q217 0 217 -182q0 -72 -18 -160l-105 -489q0 -3 -5 -27t-5 -32 q0 -12 7.5 -23.5t19.5 -11.5q21 0 36 -12t15 -35q0 -39 -36.5 -61.5t-98.5 -22.5h-152q-33 0 -46 17.5t-13 55.5q0 16 4 37.5t11.5 52.5t9.5 39l92 426q20 86 20 152q0 104 -112 104h-15q-70 -3 -140 -67.5t-87 -142.5l-94 -449q-1 -4 -6 -27.5t-5 -31.5q0 -12 7 -22t20 -13 q41 -9 41 -47q0 -40 -32 -62t-93 -22h-213q-37 0 -61.5 19t-24.5 56z" />
<glyph unicode="o" horiz-adv-x="1138" d="M125 360q0 120 36.5 229t99.5 190.5t144 142t172 91.5t181 31q377 0 377 -387q0 -146 -56.5 -276t-147 -218t-203.5 -139.5t-226 -52.5q-180 0 -278.5 103.5t-98.5 285.5zM385 317q0 -103 41 -165t117 -62q73 0 137.5 58.5t105.5 149.5t64.5 197t23.5 205q0 228 -157 228 q-95 0 -173 -92t-118.5 -230.5t-40.5 -288.5z" />
<glyph unicode="p" horiz-adv-x="1146" d="M-74 -479q0 23 15.5 40t48.5 17q35 0 49 70l250 1171q6 24 6 39q0 35 -25 35q-49 0 -49 49q0 33 35 55.5t92 22.5h133q62 0 62 -123q138 147 319 147q151 0 221 -100.5t70 -277.5q0 -198 -82.5 -369t-206.5 -258q-119 -84 -276 -84q-60 0 -122 31t-91 75l-82 -391 q0 -3 -5 -27t-5 -32q0 -29 26 -35q41 -9 41 -47q0 -40 -32 -62t-93 -22h-213q-37 0 -61.5 19t-24.5 57zM428 258q0 -83 43.5 -132.5t116.5 -49.5q48 0 92.5 24.5t95.5 100.5q45 69 80 211.5t35 238.5q0 132 -36 189t-118 57q-47 0 -90 -23t-71.5 -57.5t-47 -70t-24.5 -64.5 l-62 -305q-14 -72 -14 -119z" />
<glyph unicode="q" horiz-adv-x="1150" d="M117 311q0 137 38 257.5t100 205.5t141.5 147.5t164 92.5t164.5 30q154 0 213 -104q70 86 154 86q57 0 57 -41q0 -17 -10 -65l-260 -1250q-1 -9 -4 -21.5t-5 -22t-2 -15.5q0 -11 7 -21.5t20 -13.5q41 -9 41 -47q0 -40 -32 -62t-93 -22h-213q-37 0 -61.5 19t-24.5 57 q0 23 15.5 40t47.5 17q33 0 50 70l120 518h-6q-83 -96 -159.5 -145.5t-184.5 -49.5q-126 0 -202 93t-76 247zM383 328q0 -88 38.5 -137.5t94.5 -49.5q82 0 159 82.5t105 200.5l49 209q21 97 21 151q0 46 -11.5 76t-33 44.5t-44.5 20t-54 5.5q-92 0 -167 -83.5t-116 -220.5 t-41 -298z" />
<glyph unicode="r" horiz-adv-x="915" d="M90 63q0 23 16 40.5t48 17.5q35 0 49 69l135 629q6 24 6 39q0 35 -25 35q-49 0 -49 49q0 33 35 55.5t92 22.5h172q44 0 44 -57q0 -33 -15 -84q80 95 158 127t162 32q57 0 87.5 -20.5t30.5 -75.5q0 -28 -12.5 -65t-37 -67t-52.5 -30q-22 0 -41.5 14t-32 31t-37.5 31 t-57 14q-68 0 -132.5 -64.5t-80.5 -137.5l-96 -455q-1 -4 -6 -27.5t-5 -31.5q0 -12 7 -22t20 -13q41 -9 41 -47q0 -40 -32 -62t-93 -22h-213q-37 0 -61.5 19t-24.5 56z" />
<glyph unicode="s" horiz-adv-x="954" d="M96 141q0 26 4 54t13 58t28.5 49.5t46.5 19.5q12 0 23.5 -10t18.5 -22.5t20 -36.5t22 -38q40 -65 87 -100t118 -35q73 0 121.5 40.5t48.5 117.5q0 34 -12.5 61.5t-36 47t-43.5 32t-51.5 27.5t-42.5 22q-12 7 -41.5 23.5t-42 24t-37 23.5t-36.5 27t-30 28t-27 33.5 t-18.5 38t-13.5 45.5t-4 52q0 103 59.5 177t155 109t213.5 35q172 0 258 -43q49 -25 49 -81q0 -79 -16 -136q-17 -63 -64 -63q-14 0 -27 12t-20 25.5t-18.5 38.5t-18.5 37q-56 102 -184 102q-72 0 -123 -33t-51 -94q0 -51 38 -86t120 -78q142 -75 185 -107q97 -72 114 -174 q4 -27 4 -55q0 -157 -132.5 -247.5t-332.5 -90.5q-116 0 -221 37q-103 36 -103 133z" />
<glyph unicode="t" horiz-adv-x="747" d="M152 899q0 60 32 88q8 7 18 10.5t24.5 5t21.5 3.5q46 10 100 59t96 129q5 10 16.5 35.5t22 44.5t24.5 40t32.5 32.5t38.5 11.5q48 0 71 -16q16 -12 16 -37q0 -11 -3 -25l-60 -274h199q22 0 29.5 -6t7.5 -25q0 -51 -35 -83t-70 -32h-162l-116 -551q-11 -48 -11 -112 q0 -32 20 -54t64 -22q36 0 47 -12t11 -41q0 -86 -224 -86q-180 0 -180 178q0 30 15 108l127 592h-125q-47 0 -47 39z" />
<glyph unicode="u" horiz-adv-x="1169" d="M143 170q0 51 25 160l119 487q8 34 3 55t-22 21q-27 0 -37 12t-10 35q0 39 35.5 59.5t91.5 20.5h178q22 0 31.5 -10.5t9.5 -36.5q0 -32 -12 -78l-123 -496q-29 -134 -29 -157q0 -78 80 -78q88 0 183 101.5t129 230.5l84 321q9 34 3.5 55t-22.5 21q-27 0 -37 12t-10 35 q0 39 35.5 59.5t91.5 20.5h178q22 0 31.5 -10.5t9.5 -36.5q0 -32 -12 -78l-168 -682q-10 -35 -10 -59q0 -12 7 -23.5t19 -11.5q21 0 36.5 -12t15.5 -35q0 -39 -37 -61.5t-99 -22.5h-163q-19 0 -28 15t-9 36q0 43 28 176h-10q-70 -101 -170 -171.5t-197 -70.5 q-109 0 -164 50.5t-55 146.5z" />
<glyph unicode="v" horiz-adv-x="1050" d="M156 940q0 39 35.5 59.5t91.5 20.5h209q47 0 69.5 -13.5t22.5 -50.5q0 -23 -13 -33.5t-43 -21.5t-30 -81q0 -17 2 -38l47 -528l348 573q16 29 16 52q0 10 -8.5 16t-19 9t-19 13.5t-8.5 28.5q0 74 119 74h125q86 0 86 -64q0 -12 -7 -22.5t-13.5 -15t-22.5 -13.5t-21 -12 q-39 -26 -78 -82l-483 -721q-81 -122 -139 -125h-4q-16 -1 -28 7t-18.5 25t-10 32.5t-7 39.5t-6.5 37l-96 658q-17 129 -47 129q-49 0 -49 47z" />
<glyph unicode="w" horiz-adv-x="1482" d="M127 940q0 39 35.5 59.5t91.5 20.5h209q47 0 69.5 -13.5t22.5 -50.5q0 -23 -13 -33.5t-42 -21.5q-20 -7 -26 -35q-4 -19 -4 -50q0 -16 1 -34l21 -454l309 538q6 11 19.5 36t20.5 37t20.5 30.5t25.5 27.5t30 16t39 7q34 0 48 -28.5t24 -98.5l80 -565l211 465q27 60 27 86 q0 10 -9 16t-19 9t-19 13.5t-9 28.5q0 74 119 74h125q86 0 86 -64q0 -12 -7 -22.5t-13.5 -15t-22.5 -13.5t-21 -12q-37 -25 -77 -82l-371 -721q-45 -69 -72.5 -97t-58.5 -28q-53 0 -72 141l-80 586l-344 -602q-72 -125 -141 -125q-15 0 -24.5 8.5t-15 25t-8.5 32t-6.5 38.5 t-6.5 37l-56 658q-6 74 -16.5 101.5t-30.5 27.5q-49 0 -49 47z" />
<glyph unicode="x" horiz-adv-x="1085" d="M4 53q0 17 8.5 29t15.5 16.5t30.5 14t29.5 12.5q30 14 49.5 29t55.5 49l303 289l-142 294q-52 107 -78 107q-49 0 -49 47q0 39 35.5 59.5t91.5 20.5h219q47 0 70 -13.5t23 -50.5q0 -23 -13 -33.5t-43 -21.5q-16 -6 -16 -33q0 -16 20 -73l60 -162l141 162q27 30 35 47 t8 41q0 14 -21.5 31.5t-21.5 39.5q0 19 9.5 32t21.5 19.5t32 10t31.5 4t30.5 0.5h143q45 0 68 -15t23 -51q0 -17 -8.5 -29t-16 -16.5t-29.5 -13t-30 -12.5q-69 -32 -113 -78l-258 -262l166 -340q41 -84 84 -84q26 0 36.5 -12t10.5 -39q0 -37 -38.5 -58.5t-86.5 -21.5h-250 q-94 0 -94 71q0 25 15.5 42.5t41.5 17.5q10 0 20.5 7.5t10.5 16.5q0 14 -2.5 25t-10.5 27.5t-8 17.5l-75 190l-177 -190q-27 -28 -35 -45.5t-8 -42.5q0 -14 21.5 -32t21.5 -40q0 -23 -12 -37.5t-35.5 -20t-37.5 -6.5t-39 -1h-144q-46 0 -68 14.5t-22 50.5z" />
<glyph unicode="y" horiz-adv-x="1155" d="M4 -334q0 79 26 117.5t62 38.5q12 0 23 -4.5t23 -18.5t17.5 -21t20.5 -31t19 -30q20 -32 34 -50.5t37 -41t50 -33t61 -10.5q36 0 68.5 9t57 23t47.5 37.5t38.5 45t31 54t24.5 55.5t19 59t14.5 54.5t12.5 51.5q42 168 58 244h-11q-71 -101 -170 -171.5t-196 -70.5 q-109 0 -164 50.5t-55 146.5q0 55 24 160l119 487q8 34 3 55t-22 21q-27 0 -37 12t-10 35q0 39 35.5 59.5t91.5 20.5h179q22 0 31 -10.5t9 -36.5q0 -32 -12 -78l-123 -496q-28 -130 -28 -157q0 -78 80 -78q88 0 182.5 101.5t128.5 230.5l84 321q9 34 3.5 55t-22.5 21 q-27 0 -37 12t-10 35q0 39 35.5 59.5t91.5 20.5h178q22 0 31.5 -10.5t9.5 -36.5q0 -32 -12 -78l-225 -911q-28 -113 -81.5 -203t-115.5 -145t-134.5 -91.5t-135 -50.5t-119.5 -14q-168 0 -254 42t-86 144z" />
<glyph unicode="z" horiz-adv-x="976" d="M53 25q0 41 8 66t37 61l611 759h-123q-77 0 -123.5 -12.5t-79.5 -42.5q-16 -15 -41.5 -52t-48 -62t-43.5 -25q-41 0 -41 71q0 22 1.5 46.5t7.5 62t16.5 65.5t30 49t46.5 21q4 0 47 -6t93 -6h469q40 0 54.5 -9t14.5 -32q0 -38 -12.5 -69t-56.5 -87l-574 -717q205 3 240 11 q91 22 143 71q26 24 53.5 59t44 48.5t39.5 13.5q19 0 27 -14t8 -29q0 -32 -11 -86.5t-32 -103.5q-6 -14 -13 -25.5t-13 -20.5t-16 -15.5t-15 -11t-18 -7.5t-17 -4.5t-20.5 -2.5t-20 -1h-23h-22.5h-565q-18 0 -28.5 1t-22 10t-11.5 26z" />
<glyph unicode="{" horiz-adv-x="757" d="M180 543q0 43 17.5 59t50.5 16q61 0 102.5 17t66.5 55t38.5 80t25.5 111l47 258q41 216 168 301q43 29 135 61.5t125 32.5q11 0 16 -1.5t9 -9t4 -24.5q0 -16 -3 -26.5t-12 -16.5t-14 -8t-20 -6q-153 -40 -188 -219l-68 -346q-21 -102 -101 -186.5t-194 -119.5v-14 q71 -22 119 -72.5t51 -109.5q3 -70 -10 -133l-80 -348q-10 -52 -10 -93q0 -50 23.5 -88t76.5 -43q20 -2 29.5 -12t9.5 -35q0 -19 -10 -28.5t-19.5 -11t-25.5 -1.5q-49 0 -120 31t-97 63q-60 74 -60 156q0 60 19 145l75 332q8 33 10 53.5t-1 47t-21 46t-51 33.5 q-26 11 -72 11q-12 0 -17.5 1t-12 4.5t-9 12.5t-2.5 25z" />
<glyph unicode="|" horiz-adv-x="569" d="M338 -465v2151h141v-2151h-141z" />
<glyph unicode="}" horiz-adv-x="757" d="M-35 -385q0 16 3 26.5t12 16.5t14 8t20 6q154 41 189 219l67 347q21 101 101 185.5t194 119.5v14q-71 22 -119 72.5t-51 109.5q-3 66 11 133l79 349q11 57 11 92q0 31 -8.5 57.5t-32 48t-60.5 25.5q-20 2 -29.5 12t-9.5 35q0 19 10.5 28.5t20 11t25.5 1.5q49 0 120 -31 t97 -63q59 -72 59 -156q0 -64 -18 -145l-76 -332q-8 -33 -10 -53.5t1 -47t21 -46t51 -33.5q26 -11 72 -11q12 0 17.5 -1t12 -4.5t9 -12.5t2.5 -25q0 -43 -17.5 -59t-50.5 -16q-61 0 -102.5 -17t-66.5 -55t-38.5 -80t-25.5 -111l-47 -258q-41 -216 -168 -301 q-43 -29 -135 -61.5t-125 -32.5q-11 0 -16 1.5t-9 9t-4 24.5z" />
<glyph unicode="~" horiz-adv-x="1146" d="M217 1118q0 20 31 60q76 101 148 157t161 56q57 0 104 -15t127 -51q9 -4 34 -15.5t33.5 -15t28 -11t32 -10t30 -5t35.5 -2.5q99 0 188 86q2 2 12 13.5t19.5 16t26.5 4.5q16 0 30.5 -12t14.5 -33q0 -22 -29 -59q-40 -50 -69.5 -81.5t-69.5 -65t-83 -50t-89 -16.5 q-39 0 -79.5 10t-67.5 20.5t-83 35.5q-8 4 -32.5 15t-33.5 14.5t-29 11t-32.5 10.5t-30.5 5.5t-36 2.5q-100 0 -186 -86q-4 -3 -13.5 -14t-19.5 -16t-27 -5q-16 0 -30.5 12.5t-14.5 32.5z" />
<glyph unicode="&#xa3;" horiz-adv-x="1220" d="M82 135q0 77 54.5 123.5t150.5 46.5q62 0 157 -26q0 82 -17.5 162.5t-68.5 244.5h-223v92h187q-14 37 -32 114.5t-18 139.5q0 61 12.5 118t44.5 115t80 100.5t126 69.5t176 27q19 0 39.5 -1.5t60.5 -7t73.5 -20t66.5 -36.5t52 -59.5t19 -86.5q0 -57 -33 -94t-94 -37 q-67 0 -100 35.5t-33 85.5q0 37 18 64q19 33 19 41q0 14 -5.5 22.5t-17.5 11.5t-19 3.5t-20 0.5q-86 0 -128 -73.5t-42 -184.5q0 -60 7.5 -117t15 -89.5t33.5 -141.5h301v-92h-283q18 -97 18 -176q0 -168 -71 -274q108 -38 190 -74q107 -45 193 -45q41 0 75.5 19.5 t73.5 70.5l47 -43q-35 -52 -62.5 -85.5t-63.5 -65.5t-77.5 -47t-91.5 -15q-128 0 -229 53q-96 47 -151 88q-34 -61 -96.5 -91t-129.5 -30q-86 0 -135 45t-49 119zM195 115q0 -41 26.5 -57.5t54.5 -16.5q38 0 76 25.5t54 80.5q-11 6 -25.5 14.5t-21 12t-16.5 8.5t-17.5 6.5 t-17.5 3t-23 1.5q-90 0 -90 -78z" />
<glyph unicode="&#xa4;" horiz-adv-x="1273" d="M68 201l170 166q-103 133 -103 295q0 161 103 294l-170 170l94 101l168 -176q134 102 299 102q162 0 299 -102l170 176l96 -97l-176 -169q102 -137 102 -299q0 -163 -102 -300l176 -165l-98 -99l-170 174q-134 -102 -297 -102q-165 0 -299 102l-168 -172zM270 662 q0 -151 105.5 -259t253.5 -108q146 0 251 108t105 259t-105 258.5t-251 107.5q-148 0 -253.5 -107.5t-105.5 -258.5z" />
<glyph unicode="&#xa7;" horiz-adv-x="1085" d="M154 -45q0 97 36 146t101 49q42 0 68 -25.5t26 -69.5q0 -29 -11.5 -64t-11.5 -52q0 -41 29.5 -69t71.5 -28q87 0 124.5 47.5t37.5 120.5q0 52 -14.5 88t-63.5 88l-211 224q-74 79 -97.5 134t-23.5 134q0 209 289 366q-57 107 -27 252q26 129 121 205t258 80 q110 3 187 -56.5t77 -158.5q0 -97 -36 -146t-101 -49q-42 0 -68 25.5t-26 69.5q0 28 11 64t11 52q0 41 -29 69t-71 28q-87 0 -124.5 -47.5t-37.5 -120.5q0 -52 14.5 -88t63.5 -88l211 -224q75 -80 98 -133t23 -135q0 -210 -289 -367q56 -107 27 -251q-26 -129 -121 -205 t-258 -80q-110 -3 -187 56.5t-77 158.5zM397 768q0 -12 2.5 -25t8 -26.5t11 -24.5t15 -25.5t15.5 -23t17.5 -23t16.5 -20t17 -19.5t14 -16l184 -209q9 5 34.5 19.5t36.5 21.5t32 21.5t31.5 26.5t22.5 29t17 36.5t5 42.5q0 41 -21.5 79.5t-77.5 100.5l-211 236 q-84 -50 -111 -73q-59 -55 -59 -128z" />
<glyph unicode="&#xa8;" horiz-adv-x="1050" d="M453 1274q0 71 43.5 115.5t105.5 44.5q42 0 73.5 -31.5t31.5 -75.5q0 -62 -45 -109t-107 -47q-42 0 -72 29.5t-30 73.5zM821 1274q0 71 44 115.5t106 44.5q42 0 73 -31.5t31 -75.5q0 -62 -44.5 -109t-106.5 -47q-42 0 -72.5 29.5t-30.5 73.5z" />
<glyph unicode="&#xa9;" horiz-adv-x="1767" d="M102 770q0 162 63 309.5t169 253.5t253.5 169t309.5 63t309.5 -63t254.5 -169t170 -253.5t63 -309.5t-63 -309.5t-170 -254.5t-254.5 -170t-309.5 -63t-309.5 63t-253.5 170t-169 254.5t-63 309.5zM197 770q0 -142 55.5 -272t149.5 -224t223.5 -150t271.5 -56t272 56 t224 150t150 224t56 272t-56 271.5t-150 223.5t-224 149.5t-272 55.5t-271.5 -55.5t-223.5 -149.5t-149.5 -223.5t-55.5 -271.5zM496 778q0 96 30.5 184t85.5 156t138.5 109t181.5 41q119 0 207 -49q86 -52 86 -140q0 -55 -22 -93t-52 -38q-10 0 -19 6.5t-17.5 20.5 t-14 24.5t-14 30.5t-11.5 27q-31 62 -72 93.5t-100 31.5q-103 0 -163 -96.5t-60 -282.5q0 -109 28.5 -194t71.5 -131t86 -68.5t80 -22.5q51 0 93 15.5t67.5 38t45 45t36.5 38t31 15.5q43 0 43 -45q0 -30 -34 -72t-77 -72q-56 -40 -112 -57t-130 -17q-59 0 -115.5 16t-111 54 t-95.5 94.5t-66 143.5t-25 194z" />
<glyph unicode="&#xab;" horiz-adv-x="948" d="M162 516l608 467l43 -51l-383 -416l213 -391l-65 -55zM541 516l458 393l31 -51l-254 -342l109 -342l-54 -45z" />
<glyph unicode="&#xac;" horiz-adv-x="1552" d="M164 698v146h1272v-436h-144v290h-1128z" />
<glyph unicode="&#xad;" horiz-adv-x="884" d="M211 430v162h614v-162h-614z" />
<glyph unicode="&#xae;" horiz-adv-x="1767" d="M88 770q0 162 63 309.5t169 253.5t253.5 169t309.5 63t309.5 -63t254 -169t169.5 -253.5t63 -309.5t-63 -309.5t-169.5 -254.5t-254 -170t-309.5 -63t-309.5 63t-253.5 170t-169 254.5t-63 309.5zM182 770q0 -142 56 -272t150 -224t223.5 -150t271.5 -56t272 56t224 150 t150 224t56 272t-56 271.5t-150 223.5t-224 149.5t-272 55.5q-189 0 -350.5 -94t-256 -255.5t-94.5 -350.5zM522 348q0 16 7 24.5t28 8.5q11 0 19 14t8 35v668q0 22 -8 35.5t-19 13.5q-21 0 -28 8.5t-7 24.5q0 23 22 38t52 15h313q48 0 87 -4t88 -20t82 -43.5t56 -78.5 t23 -120q0 -91 -73.5 -164t-167.5 -84l180 -248q22 -29 43 -49.5t32.5 -28.5t21 -19t13.5 -26q6 -23 -27.5 -42t-74.5 -19q-53 0 -98.5 31.5t-104.5 127.5l-149 244q-60 19 -80 29v-289q0 -19 9 -34t19 -15q35 0 35 -33q0 -23 -20 -37t-49 -14h-162q-25 0 -47.5 14.5 t-22.5 36.5zM760 834q0 -28 35.5 -45t74.5 -17q189 0 189 189q0 39 -2.5 63t-14 51.5t-33 42.5t-61 25t-96.5 10q-19 0 -31.5 -1t-28.5 -5t-24 -14t-8 -25v-274z" />
<glyph unicode="&#xb0;" horiz-adv-x="600" d="M176 1161q0 107 76.5 183.5t183.5 76.5q109 0 185.5 -76.5t76.5 -183.5q0 -108 -77 -185t-185 -77q-107 0 -183.5 77.5t-76.5 184.5zM293 1161q0 -64 40 -103.5t103 -39.5q65 0 105.5 39.5t40.5 103.5q0 63 -41 104.5t-105 41.5q-63 0 -103 -41.5t-40 -104.5z" />
<glyph unicode="&#xb1;" horiz-adv-x="1161" d="M145 236v145h940v-145h-940zM145 735v146h398v268h145v-268h397v-146h-397v-266h-145v266h-398z" />
<glyph unicode="&#xb4;" horiz-adv-x="995" d="M645 1171l109 213q5 9 16 31.5t16 32t15.5 27t19 25t21 17.5t27 13.5t32.5 3.5q60 0 84.5 -32t24.5 -66q0 -24 -9 -45.5t-28 -40.5t-29.5 -27.5t-32.5 -24.5l-225 -161z" />
<glyph unicode="&#xb6;" horiz-adv-x="1136" d="M270 -391l279 1302q-49 8 -86.5 21.5t-74.5 40t-57 73.5t-20 111q0 148 107.5 250t275.5 102h652l-25 -110h-211l-383 -1790h-141l383 1790h-174l-383 -1790h-142z" />
<glyph unicode="&#xbb;" horiz-adv-x="948" d="M94 172l254 344l-106 340l55 51l291 -391l-457 -387zM315 125l377 391l-203 416l66 51l410 -467l-607 -446z" />
<glyph unicode="&#xf7;" horiz-adv-x="1124" d="M23 639v84h1079v-84h-1079zM473 367q0 37 25.5 62.5t62.5 25.5t62.5 -25.5t25.5 -62.5q0 -36 -26 -62t-62 -26q-35 0 -61.5 26.5t-26.5 61.5zM473 987q0 37 25.5 62.5t62.5 25.5t62.5 -25.5t25.5 -62.5q0 -35 -25.5 -60.5t-62.5 -25.5t-62.5 25.5t-25.5 60.5z" />
<glyph unicode="&#x2000;" horiz-adv-x="853" />
<glyph unicode="&#x2001;" horiz-adv-x="1706" />
<glyph unicode="&#x2002;" horiz-adv-x="853" />
<glyph unicode="&#x2003;" horiz-adv-x="1706" />
<glyph unicode="&#x2004;" horiz-adv-x="568" />
<glyph unicode="&#x2005;" horiz-adv-x="426" />
<glyph unicode="&#x2006;" horiz-adv-x="284" />
<glyph unicode="&#x2007;" horiz-adv-x="284" />
<glyph unicode="&#x2008;" horiz-adv-x="213" />
<glyph unicode="&#x2009;" horiz-adv-x="341" />
<glyph unicode="&#x200a;" horiz-adv-x="94" />
<glyph unicode="&#x2010;" horiz-adv-x="884" d="M211 430v162h614v-162h-614z" />
<glyph unicode="&#x2011;" horiz-adv-x="884" d="M211 430v162h614v-162h-614z" />
<glyph unicode="&#x2012;" horiz-adv-x="884" d="M211 430v162h614v-162h-614z" />
<glyph unicode="&#x2013;" horiz-adv-x="1439" d="M209 430v162h1188v-162h-1188z" />
<glyph unicode="&#x2014;" horiz-adv-x="1804" d="M217 430v162h1532v-162h-1532z" />
<glyph unicode="&#x2018;" horiz-adv-x="413" d="M18 1245q0 101 48 189.5t116 150.5q56 50 113.5 85.5t89.5 35.5q45 0 45 -45q0 -33 -39 -49q-60 -27 -109 -71.5t-49 -100.5q0 -31 11 -56.5t24 -40.5t24 -37.5t11 -48.5q0 -165 -166 -165q-119 0 -119 153z" />
<glyph unicode="&#x2019;" horiz-adv-x="421" d="M6 1106q0 33 39 49q60 27 109 71.5t49 100.5q0 39 -17.5 68t-35 55.5t-17.5 58.5q0 166 166 166q119 0 119 -153q0 -101 -48 -189.5t-116 -150.5q-56 -50 -113.5 -85.5t-89.5 -35.5q-45 0 -45 45z" />
<glyph unicode="&#x201c;" horiz-adv-x="733" d="M92 1233q0 101 48 189.5t116 150.5q56 50 113.5 85.5t89.5 35.5q45 0 45 -45q0 -34 -39 -50q-60 -27 -109 -71.5t-49 -100.5q0 -39 17.5 -68t35 -55.5t17.5 -58.5q0 -166 -166 -166q-65 0 -92 44t-27 110zM461 1233q0 101 48 189.5t116 150.5q56 51 113 86t89 35 q45 0 45 -45q0 -35 -38 -50q-60 -27 -109 -71.5t-49 -100.5q0 -31 11 -56.5t23.5 -40t23.5 -37t11 -48.5q0 -166 -165 -166q-65 0 -92 44t-27 110z" />
<glyph unicode="&#x201d;" horiz-adv-x="772" d="M51 1055q0 33 39 49q60 27 109 71.5t49 100.5q0 39 -17.5 68t-35 55.5t-17.5 58.5q0 166 166 166q65 0 92 -44t27 -110q0 -101 -48 -189.5t-116 -150.5q-55 -50 -113 -85t-90 -35q-45 0 -45 45zM420 1055q0 33 39 49q60 27 108.5 71.5t48.5 100.5q0 31 -11 56.5t-23.5 40 t-23.5 37t-11 48.5q0 166 166 166q118 0 118 -154q0 -101 -48 -189.5t-115 -150.5q-55 -50 -113 -85t-90 -35q-45 0 -45 45z" />
<glyph unicode="&#x201e;" horiz-adv-x="792" d="M-31 -338q0 33 39 49q60 27 109 71.5t49 100.5q0 31 -11 56.5t-24 40.5t-24 37.5t-11 48.5q0 165 166 165q119 0 119 -153q0 -101 -48 -189.5t-116 -150.5q-56 -50 -113.5 -85.5t-89.5 -35.5q-45 0 -45 45zM338 -338q0 33 39 49q60 27 109 71.5t49 100.5q0 31 -11 56.5 t-24 40.5t-24 37.5t-11 48.5q0 165 166 165q119 0 119 -153q0 -101 -48 -189.5t-116 -150.5q-56 -50 -113.5 -85.5t-89.5 -35.5q-45 0 -45 45z" />
<glyph unicode="&#x2022;" horiz-adv-x="845" d="M233 612q0 92 67 159t159 67t158.5 -67t66.5 -159t-66.5 -157.5t-158.5 -65.5q-93 0 -159.5 65.5t-66.5 157.5z" />
<glyph unicode="&#x2026;" horiz-adv-x="1708" d="M137 92q0 83 48 129.5t114 46.5q59 0 95 -34.5t36 -92.5q0 -75 -48.5 -122.5t-113.5 -47.5q-57 0 -94 29t-37 92zM719 92q0 83 47 129.5t113 46.5q59 0 95 -34.5t36 -92.5q0 -75 -48 -122.5t-112 -47.5q-58 0 -94.5 29t-36.5 92zM1298 92q0 83 48 129.5t114 46.5 q59 0 95 -34.5t36 -92.5q0 -75 -48.5 -122.5t-112.5 -47.5q-57 0 -94.5 29t-37.5 92z" />
<glyph unicode="&#x202f;" horiz-adv-x="341" />
<glyph unicode="&#x205f;" horiz-adv-x="426" />
<glyph unicode="&#x20ac;" d="M43 580q4 44 29 79q25 41 78 48q13 66 26 112h-133q4 45 29 82q17 27 42 36t64 9h43q112 262 322 422t424 160q176 0 262 -58t86 -188q0 -45 -14 -94.5t-46 -88t-73 -38.5q-14 0 -25.5 10t-21 31t-16.5 40.5t-17 50.5t-17 50q-14 38 -26 61.5t-32.5 49t-50 37.5t-69.5 12 q-126 0 -239 -127.5t-181 -329.5h469q-1 -45 -24 -84q-6 -9 -12.5 -16t-12 -11.5t-14.5 -7.5t-13.5 -5t-15.5 -2.5t-15.5 -0.5h-18h-17.5h-362q-13 -50 -23 -112h424q-2 -47 -25 -84q-5 -9 -11.5 -16t-12 -11.5t-14.5 -7.5t-14 -5t-16 -2.5t-15.5 -0.5h-17.5h-17h-295 q-2 -41 -2 -88q0 -91 17.5 -159t42.5 -105.5t59.5 -60.5t63 -29.5t58.5 -6.5q161 0 291 150q24 26 35 36.5t26.5 18.5t34.5 8q12 0 23.5 -3t24 -17t12.5 -37q0 -116 -242 -254q-133 -76 -305 -76q-84 0 -156.5 29.5t-133.5 90.5t-96.5 167.5t-35.5 247.5l2 88h-90z" />
<glyph unicode="&#x2122;" horiz-adv-x="1966" d="M129 1462q0 27 5 44.5t14.5 25t18.5 10t21 2.5q11 0 40 -3t48 -3h420q17 0 45.5 3t40.5 3q18 0 29 -4t21 -23t10 -55q0 -86 -18 -133t-48 -47q-15 0 -24.5 18t-19 51t-17.5 48q-14 22 -36.5 29.5t-74.5 7.5h-24v-678q0 -37 14 -37q26 0 34.5 -11t8.5 -32q0 -26 -23 -38.5 t-53 -12.5h-151q-28 0 -51 13t-23 38q0 15 2 23t12 14t29 6q12 0 12 37v678h-24q-52 0 -74.5 -7.5t-36.5 -29.5q-6 -13 -15.5 -47.5t-19.5 -52t-26 -17.5q-30 0 -48 47t-18 133zM889 678q0 43 47 43q10 0 10 43l8 641q0 37 -14 37q-28 0 -35.5 10t-7.5 33q0 26 22.5 39.5 t55.5 13.5h143q9 0 16 -0.5t13 -3t10 -3.5t8.5 -6t6.5 -6.5t5 -8t4 -8.5t4.5 -10.5t4.5 -10.5l252 -594l258 606q22 45 80 45h104q33 0 55.5 -13.5t22.5 -39.5q0 -41 -45 -41q-10 0 -10 -39v-647q0 -37 14 -37q26 0 34.5 -11t8.5 -32q0 -26 -23 -38.5t-53 -12.5h-151 q-30 0 -53 12.5t-23 38.5q0 22 8.5 32.5t36.5 10.5q12 0 12 37v530l-254 -600q-29 -74 -69 -74q-17 -1 -31 9.5t-20 22t-17 34.5l-266 608l6 -524q0 -43 16 -43q28 0 34.5 -10t6.5 -33q0 -26 -23 -38.5t-57 -12.5h-83q-30 0 -51 12.5t-21 38.5z" />
<glyph unicode="&#x25fc;" horiz-adv-x="1024" d="M0 0v1024h1024v-1024h-1024z" />
</font>
</defs>
</svg>
